<?xml version="1.0" encoding="UTF-8"?>
<svg id="Capa_1" data-name="Capa 1" xmlns="http://www.w3.org/2000/svg" viewBox="0 0 792 612">
  <defs>
    <style>
      .cls-1 {
        fill: #4c4e5a;
      }

      .cls-2 {
        fill: #ec6711;
      }

      .cls-3 {
        fill: #4a4a57;
      }
    </style>
  </defs>
  <g>
    <g>
      <polygon class="cls-3" points="127.08 491.6 106.43 491.6 106.43 464.81 85.57 464.81 85.57 491.6 64.92 491.6 64.92 423.21 85.57 423.21 85.57 448.44 106.43 448.44 106.43 423.21 127.08 423.21 127.08 491.6"/>
      <path class="cls-3" d="M167.02,492.8c-20.66,0-34.33-13.21-34.33-35.39s13.66-35.3,34.33-35.3,34.34,13.21,34.34,35.3-13.69,35.39-34.34,35.39M167.02,439.85c-9.97,0-13.04,8.4-13.04,17.55s2.89,17.64,13.04,17.64,13.04-8.4,13.04-17.64-3.06-17.55-13.04-17.55"/>
      <polygon class="cls-3" points="268.62 423.22 244.1 465.45 244.1 491.6 223.44 491.6 223.44 464.71 199.28 423.22 220.98 423.22 233.95 446.96 246.99 423.22 268.62 423.22"/>
      <path class="cls-3" d="M301.73,492.8c-20.66,0-34.33-13.21-34.33-35.39s13.66-35.3,34.33-35.3,34.34,13.21,34.34,35.3-13.68,35.39-34.34,35.39M301.73,439.85c-9.97,0-13.04,8.4-13.04,17.55s2.89,17.64,13.04,17.64,13.04-8.4,13.04-17.64-3.06-17.55-13.04-17.55"/>
      <path class="cls-3" d="M367.52,492.8c-8.49,0-19.62-3.88-27.5-7.12l3.6-15.81c6.31,2.13,16.54,5.55,22.94,5.55,2.28,0,7.54-.18,7.54-3.71,0-8.31-34.6-.27-34.6-27.81,0-15.99,15.16-21.9,28.03-21.9,8.49,0,17.95,2.68,25.74,6.29l-3.23,15.24c-6.84-2.23-15.16-4.44-22.33-4.44-2.2,0-7.8.28-7.8,3.69,0,3.14,8.23,4.16,10.42,4.54,13.58,2.58,25.21,6.46,25.21,23.55,0,16-15.13,21.91-28.01,21.91"/>
      <polygon class="cls-3" points="450.28 440.4 433.29 440.4 433.29 491.6 412.63 491.6 412.63 440.4 395.55 440.4 395.55 423.21 450.28 423.21 450.28 440.4"/>
      <path class="cls-3" d="M485.06,492.8c-20.66,0-34.33-13.21-34.33-35.39s13.66-35.3,34.33-35.3,34.33,13.21,34.33,35.3-13.66,35.39-34.33,35.39M485.06,439.85c-9.98,0-13.04,8.4-13.04,17.55s2.87,17.64,13.04,17.64,13.04-8.4,13.04-17.64-3.07-17.55-13.04-17.55"/>
      <path class="cls-3" d="M558.03,492.8c-20.66,0-34.34-13.21-34.34-35.39s13.68-35.3,34.34-35.3,34.33,13.21,34.33,35.3-13.68,35.39-34.33,35.39M558.03,439.85c-9.98,0-13.04,8.4-13.04,17.55s2.87,17.64,13.04,17.64,13.04-8.4,13.04-17.64-3.07-17.55-13.04-17.55"/>
      <polygon class="cls-3" points="646.4 491.6 598.06 491.6 598.06 423.21 618.71 423.21 618.71 474.51 646.4 474.51 646.4 491.6"/>
      <path class="cls-3" d="M676.52,492.8c-8.49,0-19.61-3.88-27.5-7.12l3.6-15.81c6.31,2.13,16.54,5.55,22.95,5.55,2.26,0,7.52-.18,7.52-3.71,0-8.31-34.59-.27-34.59-27.81,0-15.99,15.16-21.9,28.03-21.9,8.49,0,17.95,2.68,25.74,6.29l-3.23,15.24c-6.84-2.23-15.16-4.44-22.33-4.44-2.2,0-7.8.28-7.8,3.69,0,3.14,8.23,4.16,10.42,4.54,13.58,2.58,25.21,6.46,25.21,23.55,0,16-15.13,21.91-28.01,21.91"/>
      <polygon class="cls-3" points="187.81 560.55 192.39 532.9 175.68 556.25 174.59 556.25 165.67 533 161.06 560.55 158.87 560.55 164.26 528.24 166.15 528.24 175.66 553.21 193.51 528.24 195.35 528.24 190 560.55 187.81 560.55"/>
      <path class="cls-3" d="M216.86,545.28l-2.54,15.27h-2.09l.71-4.29c-1.9,2.78-4.98,4.49-8.95,4.49-5.11,0-7.77-2.78-7.08-6.89.61-3.65,3.32-6.74,9.66-6.74h7.8l.33-1.93c.75-4.48-1.16-6.88-5.61-6.88-3.16,0-6.2,1.25-8.39,3.05l-.81-1.66c2.63-2.12,6.17-3.41,9.71-3.41,5.64,0,8.28,3.05,7.27,9M213.31,553.44l.76-4.53h-7.78c-4.71,0-6.74,2.08-7.19,4.84-.53,3.14,1.46,5.09,5.49,5.09s6.84-1.95,8.72-5.41M209.98,532.53h-2.35l6.99-5.44h3.14l-7.78,5.44Z"/>
      <path class="cls-3" d="M218.29,557.64l1.31-1.85c1.49,1.57,4.37,2.9,7.73,2.9,4.82,0,7.03-1.8,7.5-4.51,1.16-7.02-14.81-1.85-13.24-11.32.6-3.63,3.99-6.59,9.75-6.59,2.9,0,5.87.93,7.44,2.35l-1.32,1.85c-1.66-1.47-4.05-2.17-6.5-2.17-4.45,0-6.76,1.95-7.18,4.53-1.21,7.24,14.77,2.12,13.22,11.3-.65,3.93-4.28,6.61-10.1,6.61-3.76,0-7.11-1.35-8.61-3.1"/>
      <path class="cls-3" d="M273.25,536.45l-5.5,33.05h-2.19l2.42-14.55c-2.43,3.65-6.2,5.77-10.28,5.77-6.41,0-10.45-4.99-9.24-12.23,1.2-7.21,6.91-12.23,13.32-12.23,4.11,0,7.21,2.12,8.38,5.86l.94-5.68h2.14ZM269.06,548.5c1.02-6.04-2.24-10.15-7.47-10.15s-9.87,4.11-10.88,10.15c-1.02,6.04,2.24,10.15,7.47,10.15s9.87-4.11,10.88-10.15"/>
      <path class="cls-3" d="M300.31,536.46l-4.01,24.09h-2.1l.86-5.16c-2.04,3.36-5.47,5.36-9.49,5.36-5.81,0-8.94-3.46-7.83-10.2l2.35-14.08h2.18l-2.31,13.9c-.91,5.44,1.36,8.29,6.14,8.29,5.16,0,8.94-3.63,9.9-9.36l2.15-12.83h2.18Z"/>
      <path class="cls-3" d="M324.61,549.05h-19.62c-.73,5.73,2.61,9.6,8.06,9.6,2.87,0,5.74-1.11,7.85-3.38l1,1.53c-2.43,2.58-5.8,3.93-9.25,3.93-6.91,0-10.92-5.08-9.71-12.23,1.17-7.16,6.72-12.23,12.97-12.23s10.06,4.99,8.86,12.14c-.04.18-.12.42-.16.65M305.33,547.26h17.48c.58-5.21-2.4-8.95-7.23-8.95s-9.02,3.69-10.25,8.95"/>
      <path class="cls-3" d="M360.1,546.47l-2.35,14.08h-4.21l2.26-13.57c.82-4.8-1.06-7.16-5.05-7.16-4.45,0-7.8,2.81-8.71,8.12l-2.09,12.6h-4.2l5.73-34.24h4.18l-2.2,13.25c2.13-2.36,5.25-3.71,8.8-3.71,5.64,0,9.04,3.43,7.84,10.62"/>
      <path class="cls-3" d="M386.02,549.79h-18.8c-.18,4.29,2.62,7.16,7.21,7.16,2.72,0,5.15-.97,7.18-2.95l1.83,2.85c-2.52,2.59-5.95,3.98-9.8,3.98-7.46,0-11.58-5.22-10.36-12.5,1.21-7.25,7.02-12.47,13.71-12.47s10.59,5.08,9.35,12.6c-.06.37-.2.93-.32,1.33M367.76,546.61h14.86c.24-4.1-2.19-7.02-6.26-7.02s-7.46,2.87-8.6,7.02"/>
      <path class="cls-3" d="M404.56,535.85l-.72,4.29c-.34-.05-.64-.05-.95-.05-4.5,0-7.78,2.91-8.69,8.26l-2.04,12.2h-4.17l4.09-24.45h4.01l-.69,4.1c1.96-2.86,5.1-4.34,9.16-4.34"/>
      <path class="cls-3" d="M420.32,535.85l-.72,4.29c-.34-.05-.64-.05-.95-.05-4.5,0-7.78,2.91-8.69,8.26l-2.04,12.2h-4.18l4.09-24.45h4.02l-.69,4.1c1.96-2.86,5.1-4.34,9.16-4.34"/>
      <path class="cls-3" d="M440.32,545.78l-2.46,14.77h-3.98l.54-3.23c-1.77,2.21-4.56,3.5-8.2,3.5-5.25,0-8.06-2.95-7.36-7.19.65-3.91,3.6-7.16,10.51-7.16h6.65l.15-.87c.61-3.74-1.08-5.91-5.22-5.91-2.75,0-5.73,1.02-7.79,2.63l-1.19-3.33c2.74-2.03,6.37-3.14,10.1-3.14,6.32,0,9.37,3.24,8.25,9.93M434.91,553.07l.57-3.41h-6.47c-4.15,0-5.61,1.7-5.97,3.78-.4,2.45,1.26,3.96,4.47,3.96s5.88-1.52,7.4-4.33"/>
      <path class="cls-3" d="M484.31,546.47l-2.35,14.08h-4.2l2.25-13.57c.82-4.8-.98-7.16-4.78-7.16-4.2,0-7.43,2.81-8.31,8.12l-2.1,12.6h-4.21l2.26-13.57c.81-4.8-.98-7.16-4.78-7.16-4.2,0-7.43,2.81-8.31,8.12l-2.1,12.6h-4.2l4.09-24.45h4.02l-.61,3.65c2.08-2.5,5.15-3.89,8.64-3.89s6.28,1.48,7.3,4.53c2.21-2.76,5.74-4.53,9.66-4.53,5.64,0,8.92,3.43,7.72,10.62"/>
      <path class="cls-3" d="M491.64,536.1h4.2l-4.09,24.45h-4.2l4.09-24.45ZM492.17,528.52c.27-1.61,1.71-2.91,3.32-2.91s2.64,1.25,2.39,2.81c-.28,1.66-1.68,2.95-3.34,2.95s-2.63-1.25-2.36-2.85"/>
      <path class="cls-3" d="M520.23,549.79h-18.79c-.2,4.29,2.61,7.16,7.19,7.16,2.72,0,5.15-.97,7.18-2.95l1.85,2.85c-2.53,2.59-5.95,3.98-9.81,3.98-7.46,0-11.57-5.22-10.35-12.5,1.2-7.25,7.02-12.47,13.7-12.47s10.59,5.08,9.35,12.6c-.06.37-.2.93-.32,1.33M501.96,546.61h14.88c.23-4.1-2.2-7.02-6.26-7.02s-7.47,2.87-8.61,7.02"/>
      <path class="cls-3" d="M546.54,546.47l-2.35,14.08h-4.21l2.26-13.57c.81-4.8-1.06-7.16-5.05-7.16-4.47,0-7.82,2.81-8.71,8.12l-2.09,12.6h-4.2l4.09-24.45h4.02l-.62,3.69c2.13-2.5,5.33-3.94,9-3.94,5.64,0,9.05,3.43,7.85,10.62"/>
      <path class="cls-3" d="M563.08,559.12c-1.47,1.15-3.49,1.71-5.36,1.71-4.67,0-6.9-2.73-6.07-7.67l2.25-13.42h-3.94l.61-3.65h3.93l.89-5.36h4.2l-.89,5.36h6.64l-.6,3.65h-6.64l-2.21,13.24c-.45,2.63.61,4.11,2.92,4.11,1.24,0,2.48-.42,3.49-1.16l.78,3.19Z"/>
      <path class="cls-3" d="M586.56,545.78l-2.47,14.77h-3.98l.55-3.23c-1.77,2.21-4.56,3.5-8.2,3.5-5.25,0-8.07-2.95-7.36-7.19.65-3.91,3.6-7.16,10.51-7.16h6.64l.15-.87c.62-3.74-1.06-5.91-5.21-5.91-2.76,0-5.73,1.02-7.79,2.63l-1.2-3.33c2.75-2.03,6.39-3.14,10.12-3.14,6.32,0,9.37,3.24,8.25,9.93M581.15,553.07l.57-3.41h-6.47c-4.15,0-5.61,1.7-5.97,3.78-.4,2.45,1.26,3.96,4.45,3.96s5.88-1.52,7.41-4.33"/>
      <path class="cls-3" d="M587.24,557.97l2.32-3.51c1.72,1.47,4.7,2.53,7.71,2.53,3.9,0,5.71-1.24,6.07-3.32.93-5.49-14.52-.75-12.88-10.48.72-4.38,4.93-7.34,10.88-7.34,3.01,0,6.29.84,8.07,2.23l-2.39,3.51c-1.86-1.44-4.1-1.95-6.36-1.95-3.68,0-5.7,1.43-6.03,3.36-.97,5.77,14.51,1.06,12.92,10.58-.73,4.43-5.05,7.24-11.22,7.24-3.84,0-7.44-1.25-9.09-2.86"/>
    </g>
    <path class="cls-3" d="M735.29,436.68c0,7.53-5.86,13.43-13.39,13.43s-13.32-5.9-13.32-13.35,5.79-13.36,13.39-13.36,13.32,5.75,13.32,13.28ZM733.1,436.68c0-6.36-4.69-11.2-11.12-11.2s-11.24,4.96-11.24,11.27,4.77,11.27,11.16,11.27,11.2-4.99,11.2-11.35ZM725.84,439.1l3.33,5.11h-3.25l-2.95-4.54h-3.37v4.54h-3.25v-14.91h6.2c3.93,0,6.28,2.04,6.28,5.18,0,2.23-1.06,3.82-2.99,4.62ZM722.36,437.13c2.12,0,3.33-.98,3.33-2.65s-1.21-2.61-3.33-2.61h-2.8v5.26h2.8Z"/>
  </g>
  <g>
    <path class="cls-1" d="M524.01,128.11l-64.92-37.48v207.93l-47.32,27.32v-90.31l-54.08,31.22v106.66l18.5,10.68c5.28,3.05,11.79,3.05,17.07,0l130.75-75.49c5.28-3.05,8.54-8.69,8.54-14.79v-150.97c0-6.1-3.25-11.74-8.54-14.79Z"/>
    <path class="cls-2" d="M310.37,137.8l47.32-27.32v101.67l54.08-31.22V63.3l-18.5-10.68c-5.28-3.05-11.79-3.05-17.07,0l-130.75,75.49c-5.28,3.05-8.54,8.69-8.54,14.79v150.97c0,6.1,3.25,11.74,8.54,14.79l64.92,37.48v-208.33Z"/>
  </g>
</svg>