<?xml version="1.0" encoding="UTF-8"?>
<svg width="64" height="64" enable-background="new 0 0 500 500" viewBox="0 0 500 500" xmlns="http://www.w3.org/2000/svg">
 <defs>
  <linearGradient id="d" x1="212.75" x2="352.6" y1="419.72" y2="310.95" gradientUnits="userSpaceOnUse">
   <stop stop-color="#b76a1c" offset="0"/>
   <stop stop-color="#c3761a" offset=".492"/>
   <stop stop-color="#c87c19" offset="1"/>
  </linearGradient>
  <linearGradient id="c" x1="407.97" x2="171.06" y1="249.51" y2="98.043" gradientUnits="userSpaceOnUse">
   <stop stop-color="#fab600" offset="0"/>
   <stop stop-color="#fdeff2" offset="1"/>
  </linearGradient>
  <linearGradient id="b" x1="316.07" x2="337.4" y1="345.42" y2="374.51" gradientUnits="userSpaceOnUse">
   <stop stop-color="#c3771b" offset="0"/>
   <stop stop-color="#bc6c1b" offset=".1246"/>
   <stop stop-color="#ad561c" offset=".4415"/>
   <stop stop-color="#a44a1b" offset=".7403"/>
   <stop stop-color="#a1451b" offset="1"/>
  </linearGradient>
  <linearGradient id="a" x1="146.06" x2="182.19" y1="309.87" y2="284.86" gradientUnits="userSpaceOnUse">
   <stop stop-color="#f18600" offset="0"/>
   <stop stop-color="#f39000" offset=".1204"/>
   <stop stop-color="#f59b00" offset=".3364"/>
   <stop stop-color="#f6a200" offset=".5943"/>
   <stop stop-color="#f7a400" offset="1"/>
  </linearGradient>
 </defs>
 <path d="m361.69 236.08 50.482 67.969s11.003 13.587 5.671 23.941l-172.51 112.97s-16.237 2.028-14.879-14.206c0 0 3.376-6.089 6.762-7.438l124.47-183.24z" fill="url(#d)"/>
 <path d="m496.49 168.57 0.77 8.954-136.39 177.38-58.405-34.343z" fill="#e6d58f"/>
 <path d="m358.41 350.47 137.54-181.36-258.43-122.78-142.4 139.81z" fill="url(#c)"/>
 <path d="m247.77 435.44s-15.961 8.229-15.961-5.976c0 0 2.027-5.408 5.408-8.116l155.06-157.95s7.583-7.1 3.715-20.616c0 0 0.398 9.792-6.424 16.563l-157.76 158.62s-10.892 8.252-1.354 22.321c0 0 6.711 7.868 16.613 2.332l163.17-107.51s14.564-8.413 6.796-22.652c0 0-0.119 13.178-9.386 18.768" fill="url(#b)"/>
 <path d="m383.22 272.24 4.435 4.861s4.129 4.617 0.245 9.474-9.842 10.533-9.842 10.533l-134.82 132.19s-5.823 6.793-1.938 9.706c0 0-16.512-0.972-6.8-15.533l148.72-151.23z" fill="#010202" opacity=".11"/>
 <path d="m231.44 417.55 158.57-158.71s12.402-13.437 1.688-24.781c-5.898-6.238-164.14-173.01-164.14-173.01s-13.168-9.961-22.33-0.969l-130.26 127.85 131.23-127.31s10.655-7.769 20.223 1.804 125.31 130.97 165.74 175.85c1.485 1.646 3.947 10.587-3.838 19.389-9.92 11.209-156.89 159.9-156.89 159.9z" fill="#fffdee" opacity=".3"/>
 <path d="m234.99 444.59-212.57-194.51s-45.926-31.645 7.459-58.117c53.385-26.481 116.51-69.88 116.51-69.88s31.429 21.906 33.771 46.142c2.338 24.233 54.829 276.37 54.829 276.37z" fill="#362915" opacity=".05"/>
 <path d="m390.67 232.9s13.599 13.135-0.424 29.097l-160.08 160.16s-9.775 16.909 13.35 15.128l165.63-108.26s7.423-5.02 7.566-17.531c0 0 8.996 13.394-4.748 23.143l-164.89 107.99s-16.13 8.243-28.475-10.678l-149.15-212.37s-4.857-6.589-4.854-13.593c0 0-1.203-7.35 5.827-13.596l134.81-132.31s5.844-4.693 12.622-3.563c5.823 0.974 9.708 4.532 9.708 4.532l163.11 171.85z" fill="url(#a)"/>
</svg>
